<svg
   width="75"
   height="26"
   fill="none"
   viewBox="0 0 75 26"
   xmlns="http://www.w3.org/2000/svg">
  <path
     fill="#001a57"
     d="m 4.7595449,25.118691 c -0.537662,0 -1.142721,0.03408 -1.7810999,0.06816 -0.6383789,0.03332 -1.1760409,0.06664 -1.6129859,0.06664 -0.1347942,0 -0.268831,0 -0.40362506,-0.03332 -0.16811402,0 -0.26883099,-0.134794 -0.26883099,-0.302908 v -0.03332 c 0,-0.168114 0.10071697,-0.336228 0.26883099,-0.436945 C 1.298062,24.245558 1.7016871,24.110764 2.1053123,24.077444 2.3067462,24.043367 2.5081801,24.00929 2.709614,23.94265 2.9110479,23.875253 3.1132391,23.774536 3.247276,23.606422 3.41539,23.404988 3.5501841,23.169477 3.6509011,22.900646 3.751618,22.497779 3.8190151,22.060076 3.7849379,21.623889 V 3.9128488 c 0,-0.168114 -0.1007169,-0.336228 -0.268831,-0.4028678 C 3.314673,3.4092641 3.0791619,3.341867 2.8444081,3.3077898 2.5755772,3.2744699 2.3067462,3.24115 2.003838,3.24115 1.7009298,3.24115 1.4328561,3.2070729 1.197345,3.1729957 0.76040011,3.1411903 0.49156914,3.073036 0.32345512,3.0397161 0.15534114,3.0063962 0.05462418,2.8382822 0.08870135,2.6701682 c 0,-0.1340369 0.06663979,-0.268831 0.16735671,-0.3695479 0.10147422,-0.100717 0.23551108,-0.1681141 0.40362509,-0.201434 0.16811404,-0.034077 0.30290816,-0.067397 0.47026485,-0.067397 0.168114,0 0.3029081,-0.03332 0.436945,-0.03332 h 3.4281629 c 0.9405298,0 1.8818169,-0.034077 2.8231045,-0.100717 0.940529,-0.068154 2.0158529,-0.1014742 3.2259706,-0.1014742 1.881817,0 3.763634,0.2355111 5.578811,0.7398531 1.646306,0.4702649 3.192652,1.243438 4.536807,2.3187619 1.310077,1.1086438 2.386159,2.4868759 3.058615,4.0324649 0.806493,1.848497 1.176041,3.831788 1.142721,5.847642 0,1.378232 -0.302908,2.756464 -0.941287,3.999145 -0.605059,1.243438 -1.444872,2.352839 -2.520953,3.260049 -1.108644,0.941287 -2.352082,1.71446 -3.696237,2.218802 -1.445629,0.537662 -2.991218,0.805736 -4.536807,0.805736 H 4.7603021 v 0.100716 z m 2.252122,-4.70492 c 0,0.605816 0.1340368,1.176798 0.4028678,1.68114 0.2688308,0.469507 0.6383795,0.873132 1.1094009,1.176041 0.4695076,0.33547 1.0079269,0.570981 1.5455884,0.705018 0.57174,0.134794 1.176041,0.235511 1.7811,0.235511 0.605059,0 1.210118,-0.100717 1.7811,-0.234753 0.739853,-0.168115 1.445629,-0.403626 2.117328,-0.705776 0.772416,-0.336228 1.512269,-0.773173 2.184725,-1.277516 0.739096,-0.537661 1.411552,-1.17604 1.949214,-1.915894 0.605059,-0.772415 1.075324,-1.646305 1.411552,-2.587592 0.369548,-1.108644 0.537662,-2.251365 0.537662,-3.394086 0,-1.176041 -0.168114,-2.385402 -0.537662,-3.494803 C 20.656164,8.61777 19.411969,6.904067 17.765663,5.6273089 16.993247,5.0555698 16.152677,4.5179078 15.278787,4.11504 13.665801,3.3751869 11.951341,2.9715618 10.170241,2.9382419 c -0.6050586,0 -1.2093604,0.034077 -1.8144186,0.1007169 C 8.0195943,3.073036 7.7166854,3.173753 7.4145347,3.3077898 7.2464207,3.3759442 7.1116266,3.5433009 7.0449868,3.7114149 7.0116669,3.8454518 6.9775897,3.9802459 6.9775897,4.11504 Z m 26.0114791,5.377376 c -0.739853,0.03332 -1.512269,-0.100717 -2.218802,-0.369548 -0.570982,-0.234753 -1.041247,-0.605816 -1.377475,-1.075324 -0.336228,-0.504342 -0.605059,-1.075323 -0.705776,-1.68114 -0.134037,-0.705018 -0.201434,-1.444872 -0.201434,-2.183967 0,-0.570982 0,-1.210118 0.03332,-1.915894 0,-0.705776 0.03408,-1.411552 0.03408,-2.117328 0,-0.739096 0,-1.444872 0.03332,-2.116571 0,-0.705776 0.03332,-1.310835 0.03332,-1.848497 0.03408,-0.234754 -0.134037,-0.471022 -0.369548,-0.537662 -0.234754,-0.0674 -0.503585,-0.134794 -0.705776,-0.202191 -0.302151,-0.06664 -0.604301,-0.167357 -0.90721,-0.268831 -0.134036,-0.03332 -0.234753,-0.134037 -0.234753,-0.268831 0,-0.134037 0.100717,-0.268831 0.234753,-0.302151 h 0.03332 c 0.235511,-0.03332 0.437703,-0.03332 0.672456,-0.03332 0.268831,0 0.537662,0 0.806493,0.03332 0.268831,0.03332 0.537662,0.03332 0.806493,0.03332 0.268831,0 0.571739,0 0.84057,-0.03332 0.268831,-0.03332 0.570982,-0.03332 0.84057,-0.03332 0.268074,0 0.402868,0.03332 0.469508,0.134037 0.06815,0.168114 0.101474,0.369548 0.101474,0.571739 0,1.679626 0,3.360766 -0.03408,5.040392 -0.03332,1.68114 -0.03332,3.327446 -0.03332,5.041148 -0.03332,0.672456 0.268831,1.344155 0.772416,1.7811 0.639136,0.436945 1.412309,0.672456 2.184725,0.605817 0.84057,0.03332 1.647063,-0.06816 2.453556,-0.302909 0.504342,-0.134794 0.941287,-0.403625 1.344155,-0.773173 0.302908,-0.302908 0.504342,-0.672456 0.571739,-1.075323 0.100717,-0.369548 0.134037,-0.772416 0.134037,-1.176041 0,-1.344155 0,-2.68831 0.03332,-4.033222 0.03408,-1.344155 0.03408,-2.65499 0.03408,-4.032465 0,-0.100717 -0.03332,-0.168114 -0.0674,-0.268831 -0.0674,-0.100717 -0.168114,-0.168114 -0.268831,-0.202191 -0.134037,-0.03332 -0.336228,-0.100717 -0.570982,-0.168114 -0.235511,-0.06664 -0.605816,-0.167357 -1.042004,-0.268074 -0.134794,-0.03408 -0.369548,-0.134794 -0.672456,-0.235511 -0.302908,-0.100717 -0.436945,-0.234754 -0.436945,-0.369548 0,-0.134794 0.100717,-0.202191 0.268831,-0.235511 0.202191,-0.03332 0.370305,-0.0674 0.571739,-0.0674 0.336228,0 0.638379,0 0.974607,0.03408 0.302908,0.03332 0.638379,0.03332 0.974607,0.03332 0.369548,0 0.739096,0 1.108644,-0.03332 0.369547,-0.03408 0.739853,-0.03408 1.109401,-0.03408 0.168114,0 0.336228,0.0674 0.504342,0.134794 0.201434,0.100717 0.302151,0.302908 0.302151,0.671699 0,1.915894 -0.03332,3.797711 -0.0674,5.713605 -0.03332,1.881817 -0.0674,3.797711 -0.0674,5.712847 0,0.403625 0.134795,0.638379 0.370306,0.739096 0.201434,0.101474 0.402867,0.134794 0.604301,0.134794 0.739853,0 1.243438,0 1.513027,0.03332 0.30215,0.03408 0.436187,0.134794 0.436187,0.336228 0,0.134794 -0.06664,0.234754 -0.168114,0.302908 -0.201434,0.06664 -0.369548,0.134037 -0.570982,0.134037 -1.344154,0.201434 -2.385401,0.369548 -3.125254,0.504342 -0.471023,0.100717 -0.941287,0.168114 -1.411552,0.234754 -0.134794,0 -0.234754,-0.06664 -0.268831,-0.167357 -0.03332,-0.134794 -0.03332,-0.302908 -0.03332,-0.436945 v -0.87389 c 0,-0.302908 -0.101474,-0.436945 -0.269588,-0.436945 -0.234754,0.03332 -0.469508,0.168114 -0.638379,0.336228 -0.268831,0.234754 -0.638379,0.470265 -1.075324,0.772416 -0.470265,0.302908 -1.007927,0.571739 -1.545589,0.773173 -0.773173,0.234754 -1.445629,0.369548 -2.117328,0.336228 z M 47.272702,3.678095 C 47.306022,3.3077898 47.204548,2.904922 47.003871,2.6027711 46.835757,2.4005799 46.600246,2.2324659 46.364735,2.1650689 46.129981,2.0643519 45.92779,1.9977121 45.726356,1.9636349 c -0.168114,-0.03332 -0.302908,-0.168114 -0.268831,-0.336228 0,-0.1340368 0.0674,-0.2347538 0.202191,-0.268831 0.201434,-0.1007169 0.402868,-0.1673567 0.604302,-0.2347538 l 2.554273,-0.9746068 c 0.100717,-0.034077 0.201434,-0.067397 0.302908,-0.067397 h 0.335471 c 0.101474,0 0.202191,0.067397 0.268831,0.1347941 0.100717,0.1673568 0.168114,0.3695479 0.134794,0.537662 V 16.246512 c 0,0.403625 0.100717,0.605816 0.336228,0.605816 0.201434,-0.06815 0.402868,-0.134794 0.570982,-0.236268 0.336228,-0.167357 0.739853,-0.369548 1.176041,-0.638379 0.436945,-0.268831 0.941287,-0.570982 1.445629,-0.87389 0.503585,-0.335471 0.974607,-0.638379 1.411552,-0.94053 0.436945,-0.302908 0.772416,-0.571739 1.075324,-0.806493 0.302908,-0.234754 0.436945,-0.436945 0.436945,-0.537662 0,-0.202191 -0.06815,-0.436945 -0.235511,-0.571739 -0.134794,-0.134037 -0.302908,-0.234754 -0.504342,-0.336228 -0.168114,-0.100717 -0.336228,-0.168114 -0.503585,-0.268831 -0.134794,-0.06664 -0.235511,-0.201434 -0.235511,-0.369548 0,-0.100717 0.0674,-0.201434 0.168114,-0.268831 0.100717,-0.0674 0.234754,-0.100717 0.369548,-0.100717 0.403625,0 0.87389,0 1.378232,0.03332 0.503585,0.03408 1.007169,0.03408 1.512269,0.03408 0.469507,0 0.974607,0 1.478191,-0.03408 0.504342,-0.03332 0.974607,-0.03332 1.344155,-0.03332 0.168114,0 0.336228,0.03332 0.504342,0.0674 0.168114,0.0674 0.234754,0.201434 0.234754,0.369548 0,0.100717 -0.06664,0.201434 -0.201434,0.268831 -0.167357,0.100717 -0.335471,0.168114 -0.503585,0.234754 -0.201433,0.06815 -0.403625,0.134794 -0.638378,0.202191 -0.202192,0.0674 -0.370306,0.134037 -0.504343,0.168114 -0.268831,0.134037 -0.806492,0.402868 -1.612985,0.84057 -0.806493,0.436188 -1.612986,0.906453 -2.453556,1.410795 -0.84057,0.504342 -1.579666,0.974607 -2.251365,1.411552 -0.638379,0.436945 -0.974607,0.705776 -0.974607,0.806493 0,0.100717 0.03332,0.234754 0.100717,0.336228 l 0.201434,0.201434 6.520098,5.915038 c 0.336228,0.302909 0.705776,0.570982 1.108643,0.806493 0.369548,0.168114 0.672456,0.336228 0.974607,0.436945 0.268831,0.100717 0.504342,0.201434 0.672456,0.268831 0.168114,0.0674 0.234754,0.168114 0.234754,0.302908 0,0.234754 -0.335471,0.369548 -0.974607,0.369548 -0.402868,0 -0.84057,-0.03408 -1.310077,-0.06815 -0.471023,-0.03256 -1.008685,-0.06664 -1.579666,-0.06664 -0.470265,0 -0.941287,0.03332 -1.444872,0.0674 -0.436945,0.03332 -0.907967,0.0674 -1.344912,0.0674 -0.302909,0 -0.570982,0 -0.873133,-0.06815 -0.168114,-0.03256 -0.269588,-0.167357 -0.269588,-0.301394 0,-0.168114 0.134794,-0.336228 0.302908,-0.370305 0.268831,-0.06664 0.537662,-0.134037 0.806493,-0.168114 0.168114,-0.03332 0.369548,-0.06664 0.504342,-0.201434 0.134037,-0.0674 0.201434,-0.201434 0.201434,-0.336228 0,-0.134037 -0.134794,-0.336228 -0.403625,-0.605059 l -5.679528,-5.376619 c -0.168114,-0.134794 -0.268831,-0.234754 -0.336228,-0.234754 -0.167357,0 -0.268831,0.06664 -0.268831,0.201434 v 5.343299 c -0.03332,0.336229 0.06815,0.638379 0.269588,0.87389 0.167357,0.134037 0.335471,0.268831 0.537662,0.302151 0.234754,0.100717 0.503585,0.168114 0.772416,0.201434 0.202191,0.03408 0.336228,0.134794 0.336228,0.336228 0,0.134794 -0.100717,0.234754 -0.268831,0.302908 -0.201434,0.03332 -0.402868,0.06664 -0.570982,0.06664 -0.436945,0 -0.87389,-0.03332 -1.277515,-0.06664 -0.402868,-0.03408 -0.84057,-0.06815 -1.243438,-0.06815 -0.470265,0 -0.94053,0.03408 -1.444872,0.06815 -0.504342,0.03332 -0.941287,0.06664 -1.276758,0.06664 -0.168114,0 -0.370305,-0.03332 -0.537661,-0.06664 -0.235512,-0.03408 -0.370306,-0.134794 -0.370306,-0.336228 0,-0.134794 0.0674,-0.302908 0.202191,-0.370305 0.167357,-0.06664 0.335471,-0.134037 0.503585,-0.167357 0.234754,-0.06815 0.504342,-0.134794 0.705776,-0.202191 0.202191,-0.03332 0.403625,-0.134037 0.605059,-0.234754 0.168114,-0.100717 0.302908,-0.268831 0.403625,-0.436945 0.100717,-0.302908 0.134037,-0.605059 0.134037,-0.907209 z m 17.744359,12.703211 c -0.06815,0.168114 -0.06815,0.336228 -0.06815,0.537662 v 0.806493 c 0,0.772416 0.06815,1.579666 0.202191,2.352839 0.134794,0.705018 0.403625,1.411552 0.806493,2.015853 0.436945,0.605817 1.008684,1.109401 1.647063,1.411552 0.87389,0.403625 1.84774,0.571739 2.789027,0.537662 0.571739,0.03408 1.143478,-0.06664 1.68114,-0.234754 0.335471,-0.101474 0.671699,-0.302908 0.94053,-0.504342 0.201434,-0.168114 0.369548,-0.336228 0.537662,-0.537662 0.100717,-0.134794 0.234753,-0.234753 0.402867,-0.234753 0.235512,0 0.336228,0.09996 0.336228,0.302151 -0.06664,0.201433 -0.168114,0.402867 -0.302908,0.570981 -0.268073,0.403625 -0.604301,0.739096 -0.973849,1.007927 -0.537662,0.403625 -1.109401,0.739853 -1.713703,0.974607 -0.80725,0.302908 -1.647063,0.471022 -2.487633,0.436945 -2.083251,0 -3.696237,-0.671699 -4.838958,-2.049931 -1.142721,-1.378232 -1.713703,-3.225971 -1.713703,-5.61213 0,-0.941287 0.134037,-1.84774 0.402868,-2.722387 0.268831,-0.90721 0.705776,-1.7811 1.243438,-2.553516 0.571739,-0.773173 1.310835,-1.411552 2.117328,-1.915894 0.941287,-0.537662 1.982534,-0.772416 3.058615,-0.739096 0.94053,-0.03408 1.881817,0.167357 2.72163,0.604302 0.672456,0.370305 1.310835,0.84057 1.7811,1.445629 0.436945,0.503585 0.773173,1.108644 0.974606,1.747023 0.168114,0.471022 0.268831,0.974607 0.302909,1.512269 0.03332,0.235511 -0.03408,0.471022 -0.134795,0.705776 -0.100716,0.101474 -0.302908,0.168114 -0.605059,0.168114 z m 3.59552,-1.142721 c 0.672456,0 1.344155,-0.03332 1.983291,-0.100717 0.402868,-0.03408 0.806493,-0.134794 1.176041,-0.336228 0.234754,-0.100717 0.436945,-0.302908 0.537662,-0.570982 0.100717,-0.268831 0.134037,-0.571739 0.134037,-0.87389 0,-0.638379 -0.302151,-1.243438 -0.806493,-1.647063 -0.570982,-0.436945 -1.276758,-0.671699 -1.982534,-0.671699 -0.638379,0 -1.276758,0.134037 -1.815177,0.436188 -0.503585,0.269588 -0.974607,0.605816 -1.344155,1.042004 -0.335471,0.369548 -0.638379,0.773173 -0.84057,1.243438 -0.167357,0.336228 -0.268074,0.705776 -0.301394,1.075324 0,0.06815 0,0.134794 0.06664,0.168114 0.100717,0.06815 0.234754,0.100717 0.369548,0.100717 0.202191,0.03408 0.537662,0.03408 0.974607,0.06815 0.403625,0.06664 1.042004,0.06664 1.848497,0.06664 z"
     id="path10"
     style="stroke-width:0.75727" />
</svg>
